<?xml version="1.0" encoding="utf-8"?>
<!-- Generator: Adobe Illustrator 16.0.0, SVG Export Plug-In . SVG Version: 6.00 Build 0)  -->
<!DOCTYPE svg PUBLIC "-//W3C//DTD SVG 1.1//EN" "http://www.w3.org/Graphics/SVG/1.1/DTD/svg11.dtd">
<svg version="1.1" id="Layer_1" xmlns="http://www.w3.org/2000/svg" xmlns:xlink="http://www.w3.org/1999/xlink" x="0px" y="0px"
	 width="40px" height="40px" viewBox="0 0 40 40" enable-background="new 0 0 40 40" xml:space="preserve">
<a xlink:href="javascript:(function(){window.twttr=window.twttr||{};var D=550,A=400,C=screen.height,B=screen.width,H=Math.round((B/2)-(D/2)),G=0,F=document,E;if(C>A){G=Math.round((C/2)-(A/2))}window.twttr.shareWin=window.open('http://twitter.com/share','','left='+H+',top='+G+',width='+D+',height='+A+',personalbar=0,toolbar=0,scrollbars=1,resizable=1');E=F.createElement('script');E.src='http://platform.twitter.com/bookmarklets/share.js?v=1';F.getElementsByTagName('head')[0].appendChild(E)}());">
<path fill="#010101" d="M183.891,2.834c-10.322,0-18.689,8.367-18.689,18.689c0,10.322,8.367,18.689,18.689,18.689
	s18.689-8.367,18.689-18.689C202.58,11.201,194.213,2.834,183.891,2.834z M179.316,29.267h-3.785V17.09h3.785V29.267z
	 M177.398,15.595c-1.195,0-1.967-0.845-1.967-1.89c0-1.072,0.797-1.896,2.017-1.896c1.221,0,1.968,0.823,1.992,1.896
	C179.44,14.75,178.669,15.595,177.398,15.595z M193.138,29.267h-3.786V22.52c0-1.568-0.548-2.641-1.917-2.641
	c-1.046,0-1.669,0.723-1.942,1.422c-0.1,0.248-0.125,0.598-0.125,0.945v7.021h-3.785v-8.292c0-1.518-0.049-2.788-0.1-3.885h3.286
	l0.176,1.695h0.074c0.498-0.799,1.719-1.967,3.762-1.967c2.488,0,4.357,1.668,4.357,5.255V29.267z"/>
<path fill="#010101" d="M20,1.311C9.678,1.311,1.311,9.678,1.311,20S9.678,38.689,20,38.689S38.689,30.322,38.689,20
	S30.322,1.311,20,1.311z M25.017,28.063c-0.765,0.365-1.456,0.621-2.075,0.768s-1.29,0.219-2.01,0.219
	c-0.818,0-1.54-0.104-2.168-0.313c-0.629-0.211-1.164-0.508-1.608-0.893c-0.443-0.389-0.752-0.8-0.923-1.236
	c-0.171-0.434-0.256-1.066-0.256-1.893v-6.348H14v-2.563c0.701-0.23,1.304-0.562,1.805-0.992c0.501-0.432,0.903-0.951,1.206-1.555
	c0.304-0.604,0.512-1.375,0.626-2.309h2.542v4.576h4.245v2.842h-4.245v4.641c0,1.049,0.056,1.723,0.167,2.021
	c0.109,0.297,0.313,0.535,0.611,0.713c0.396,0.24,0.849,0.359,1.357,0.359c0.906,0,1.807-0.297,2.702-0.895V28.063z"/>
<path fill="#010101" d="M290.593,16.235c-0.471-1.651-1.23-2.142-2.411-2.142c-0.128,0-0.255,0.017-0.379,0.053
	c-0.511,0.145-0.917,0.572-1.144,1.205c-0.23,0.645-0.246,1.315-0.046,2.081c0.359,1.363,1.329,2.352,2.307,2.352
	c0.129,0,0.256-0.018,0.379-0.053C290.366,19.429,291.036,17.799,290.593,16.235z M292.351,2.834
	c-10.322,0-18.689,8.367-18.689,18.689c0,10.322,8.367,18.689,18.689,18.689c10.323,0,18.689-8.367,18.689-18.689
	C311.04,11.201,302.674,2.834,292.351,2.834z M291.273,29.547c-1.173,0.572-2.438,0.635-2.927,0.635
	c-0.093,0-0.146-0.004-0.155-0.004c0,0-0.035,0.002-0.095,0.002c-0.762,0-4.561-0.176-4.561-3.637c0-3.398,4.137-3.666,5.403-3.666
	l0.034,0.002c-0.732-0.978-0.581-1.963-0.581-1.963c-0.064,0.004-0.158,0.008-0.273,0.008c-0.478,0-1.397-0.076-2.189-0.586
	c-0.968-0.625-1.458-1.684-1.458-3.154c0-4.147,4.529-4.315,4.574-4.315h4.524v0.096c0,0.508-0.908,0.603-1.529,0.689
	c-0.209,0.028-0.632,0.072-0.75,0.133c1.146,0.614,1.33,1.574,1.33,3.006c0,1.631-0.639,2.494-1.316,3.102
	c-0.418,0.373-0.749,0.67-0.749,1.065c0,0.385,0.453,0.783,0.978,1.242c0.859,0.756,2.037,1.789,2.037,3.524
	C293.57,27.521,292.797,28.809,291.273,29.547z M301.165,21.506h-2.95v2.951h-1.869v-2.951h-2.95v-1.87h2.95v-2.952h1.869v2.952
	h2.95V21.506z M288.891,23.766c-0.102,0-0.203,0.001-0.305,0.01c-0.866,0.064-1.662,0.387-2.241,0.914
	c-0.572,0.518-0.864,1.168-0.822,1.832c0.087,1.38,1.572,2.195,3.377,2.063c1.777-0.131,2.961-1.15,2.874-2.535
	C291.691,24.748,290.561,23.766,288.891,23.766z"/>
<path fill="#010101" d="M238.12,2.834c-10.322,0-18.689,8.367-18.689,18.689c0,10.322,8.367,18.689,18.689,18.689
	c10.321,0,18.689-8.367,18.689-18.689C256.81,11.201,248.441,2.834,238.12,2.834z M242.547,15.748h-2.811
	c-0.332,0-0.702,0.437-0.702,1.021v2.03h3.513v2.893h-3.513v8.686h-3.317v-8.686h-3.007v-2.893h3.007v-1.701
	c0-2.441,1.694-4.426,4.02-4.426h2.811V15.748z"/>
</a>
</svg>
